<svg width="96" height="96" viewBox="0 0 96 96" fill="none" xmlns="http://www.w3.org/2000/svg">
  <defs>
    <linearGradient id="skillSphereGradient" x1="12" y1="12" x2="84" y2="84" gradientUnits="userSpaceOnUse">
      <stop stop-color="#0B5FFF"/>
      <stop offset="1" stop-color="#4CC9F0"/>
    </linearGradient>
  </defs>
  <rect x="8" y="8" width="80" height="80" rx="24" fill="url(#skillSphereGradient)"/>
  <path d="M63.38 31.47C60.96 28.54 56.82 26 50.81 26C42.99 26 37.84 30.08 37.84 36.35C37.84 42.52 42.82 45.14 49.09 46.36L53.4 47.23C57.04 47.95 59.03 49.28 59.03 51.7C59.03 54.63 56.03 56.61 51.19 56.61C46.49 56.61 42.85 54.97 39.98 51.58L33.39 57.51C37.1 62.07 43.06 65.43 50.98 65.43C60.24 65.43 68.01 60.94 68.01 51.19C68.01 44.08 63.06 40.52 56.13 39.12L51.83 38.25C48.12 37.5 46.79 36.35 46.79 34.16C46.79 31.78 49.02 29.97 52.99 29.97C56.6 29.97 59.27 31.33 61.29 33.72L63.38 31.47Z" fill="white"/>
  <path d="M64.94 33.59L61.41 29.97C60.88 29.42 59.99 29.46 59.51 30.06L57.39 32.73C57.06 33.15 57.08 33.74 57.45 34.13L60.97 37.76C61.51 38.31 62.41 38.27 62.88 37.66L65 35C65.33 34.58 65.31 33.99 64.94 33.59Z" fill="#DFF6FF"/>
</svg>
