<svg width="64" height="64" viewBox="0 0 64 64" fill="none" xmlns="http://www.w3.org/2000/svg">
  <defs>
    <linearGradient id="bg" x1="10" y1="8" x2="54" y2="56" gradientUnits="userSpaceOnUse">
      <stop stop-color="#17384B"/>
      <stop offset="1" stop-color="#07131D"/>
    </linearGradient>
    <linearGradient id="orbit" x1="14" y1="14" x2="52" y2="50" gradientUnits="userSpaceOnUse">
      <stop stop-color="#74E7FA"/>
      <stop offset="1" stop-color="#77EDC3"/>
    </linearGradient>
  </defs>
  <rect x="2" y="2" width="60" height="60" rx="18" fill="url(#bg)"/>
  <rect x="2.5" y="2.5" width="59" height="59" rx="17.5" stroke="#DDF8FF" stroke-opacity="0.12"/>
  <path d="M16 33.5C16.8 21.2 24.3 14 34.8 14C42.6 14 48.5 17.8 51.8 23.7" stroke="url(#orbit)" stroke-width="2.4" stroke-linecap="round"/>
  <path d="M48.6 39.6C45.4 46.4 39.5 50 31.5 50C21.1 50 14.8 43.8 13 35.8" stroke="url(#orbit)" stroke-width="2.4" stroke-linecap="round" stroke-opacity="0.66"/>
  <path d="M39.8 21.6C37.7 19.9 34.8 19 31.8 19C27.1 19 23.9 21 23.9 24.2C23.9 27.3 26.2 28.7 32.5 30.1C39.2 31.7 42.1 34.1 42.1 38.6C42.1 43.3 38 46.4 31.7 46.4C27.3 46.4 23.3 45.1 20.2 42.2" stroke="#F4FCFF" stroke-width="4.2" stroke-linecap="round"/>
  <circle cx="16" cy="33.5" r="3.2" fill="#74E7FA"/>
  <circle cx="51.8" cy="23.7" r="3.2" fill="#77EDC3"/>
  <circle cx="48.6" cy="39.6" r="2.4" fill="#F4FCFF" fill-opacity="0.9"/>
</svg>
